<svg width="24" height="22" fill="none" xmlns="http://www.w3.org/2000/svg"><rect x="1.75" y=".75" width="10.95" height="19.91" rx="1.25" stroke="#48494D" stroke-width="1.5"/><mask id="a" fill="#fff"><rect x="3.1" y="3.1" width="8.26" height="7.23" rx="1"/></mask><rect x="3.1" y="3.1" width="8.26" height="7.23" rx="1" stroke="#48494D" stroke-width="3" mask="url(#a)"/><path d="M12.95 10.83v0c1.18 0 2.14.96 2.14 2.15v2.66c0 1.34.54 3.49 2.5 3.27 1.96-.23 2.32-2.23 2.32-3.65 0-1.43-.71-4.62-.54-7.3.18-2.7 1.79-5 3.04-5.97" stroke="#48494D" stroke-width="1.5" stroke-linecap="round" stroke-linejoin="round"/><rect x=".5" y="20.51" width="13.45" height="1" rx=".5" fill="#48494D" stroke="#48494D"/><path d="M20.42 5.48a1.9 1.9 0 0 1 1.43 2.02l-.08.87c-.09.9-.85 1.59-1.75 1.59" stroke="#48494D" stroke-width="1.5"/></svg>