<svg width="135" height="55" fill="none" xmlns="http://www.w3.org/2000/svg"><path d="m84.438 23.78-.97-3.046-4.684.059-.893 3.07-2.936.037 4.373-12.959 3.33-.041 4.715 12.844-2.935.037Zm-1.649-5.323c-.896-2.76-1.402-4.321-1.518-4.683a14.79 14.79 0 0 1-.24-.859c-.183.753-.714 2.614-1.59 5.584l3.348-.042Zm15.718-7.704 2.751-.034-4.207 12.903-2.97.038-4.52-12.794 2.75-.035 2.513 7.616c.14.449.285.975.433 1.576.154.596.25 1.01.288 1.245.058-.54.266-1.486.624-2.838l2.338-7.677Zm11.835 12.702-2.725.034-.133-10.58-3.489.043-.028-2.267 9.702-.122.029 2.267-3.489.044.133 10.581Zm19.387-6.686c.027 2.127-.48 3.768-1.52 4.924-1.041 1.155-2.545 1.745-4.514 1.77-1.968.025-3.487-.527-4.556-1.657-1.069-1.129-1.617-2.763-1.644-4.901-.027-2.139.48-3.777 1.521-4.915 1.046-1.144 2.556-1.729 4.531-1.754 1.974-.024 3.49.525 4.547 1.648 1.063 1.124 1.608 2.752 1.635 4.885Zm-9.377.118c.018 1.435.304 2.512.858 3.232.554.72 1.373 1.073 2.457 1.06 2.173-.028 3.242-1.486 3.206-4.374-.037-2.895-1.136-4.328-3.298-4.301-1.084.014-1.896.39-2.438 1.13-.541.733-.803 1.817-.785 3.253ZM79.859 44.84l-3.003-8.31H76.8c.093 1.24.146 2.401.16 3.486l.06 4.86-1.482.018-.126-9.993 2.303-.03 2.876 7.915h.04L83.39 34.8l2.31-.028.126 9.993-1.572.02-.062-4.942a70.927 70.927 0 0 1 .01-1.942 30.58 30.58 0 0 1 .05-1.45h-.055l-2.896 8.37-1.442.019Zm19.228-5.253c.02 1.627-.372 2.897-1.176 3.81-.8.912-1.945 1.377-3.435 1.396-1.508.019-2.674-.413-3.496-1.296-.818-.888-1.237-2.156-1.258-3.806-.02-1.65.369-2.921 1.169-3.816.805-.894 1.961-1.35 3.47-1.37 1.485-.018 2.639.416 3.461 1.304.823.887 1.244 2.147 1.265 3.778Zm-7.629.096c.016 1.23.276 2.161.78 2.793.505.627 1.245.935 2.22.922.971-.012 1.698-.335 2.183-.97.489-.636.725-1.575.71-2.82-.016-1.225-.274-2.151-.774-2.779-.495-.627-1.228-.934-2.199-.922-.98.012-1.716.338-2.21.978-.488.64-.725 1.572-.71 2.798Zm15.11 4.821-1.634.02-.108-8.591-2.939.037-.018-1.402 7.512-.094.018 1.401-2.939.037.108 8.592Zm15.106-5.2c.021 1.626-.371 2.896-1.176 3.808-.8.913-1.944 1.378-3.435 1.397-1.508.02-2.673-.413-3.496-1.296-.818-.888-1.237-2.156-1.258-3.806-.02-1.65.369-2.921 1.169-3.815.805-.895 1.961-1.351 3.47-1.37 1.485-.019 2.639.415 3.462 1.303.822.888 1.244 2.147 1.264 3.778Zm-7.628.095c.015 1.23.275 2.162.78 2.793.505.627 1.245.935 2.22.923.971-.013 1.698-.336 2.182-.971.489-.635.726-1.575.71-2.819-.015-1.226-.273-2.152-.773-2.78-.496-.627-1.229-.934-2.2-.922-.979.012-1.716.338-2.209.978-.489.64-.726 1.572-.71 2.798Z" fill="#48494D"/><g clip-path="url(#a)"><path d="m42.154 27.581-6.79-.465a1.833 1.833 0 0 1-1.086-3.206l5.108-4.494a14.71 14.71 0 0 0-7.748-5.495l-2.542 6.32a1.833 1.833 0 0 1-3.384.043l-2.693-6.25a14.71 14.71 0 0 0-7.608 5.688l5.22 4.365a1.833 1.833 0 0 1-1.006 3.233l-6.776.635c.001.078-.01.153-.009.231a14.573 14.573 0 0 0 3.062 8.762l5.759-3.613a1.834 1.834 0 0 1 2.763 1.956l-1.492 6.638a14.477 14.477 0 0 0 9.496-.12l-1.658-6.598a1.833 1.833 0 0 1 2.713-2.024l5.845 3.461a14.572 14.572 0 0 0 2.84-8.836c0-.078-.011-.153-.014-.23Zm-14.616 3.165a2.75 2.75 0 1 1-.07-5.5 2.75 2.75 0 0 1 .07 5.5Z" fill="#D12136"/><path d="M27.17 1.415C12.488 1.599.736 13.65.921 28.33c.184 14.68 12.235 26.432 26.915 26.248 14.68-.185 26.432-12.236 26.247-26.916C53.9 12.982 41.85 1.231 27.17 1.415Zm.517 41.247c-8.1.101-14.748-6.382-14.85-14.482-.101-8.1 6.382-14.748 14.482-14.85 8.1-.101 14.748 6.382 14.85 14.482.101 8.1-6.382 14.748-14.482 14.85Z" fill="#2B2733"/><path d="M44.616 7.662c9.734 10.986 8.72 27.783-2.266 37.516-9.87 8.745-24.658 8.93-34.744.437 9.729 10.99 26.525 12.013 37.516 2.283 10.99-9.73 12.013-26.525 2.283-37.516a26.598 26.598 0 0 0-2.789-2.72Z" fill="#1A1721"/><path d="m18.986 5.717 1.736-.588-.882-2.605-1.737.588.883 2.605Z" fill="#555160"/><path d="m34.844 53.063 1.744-.567-.85-2.616-1.743.567.85 2.616Z" fill="#3B3944"/><path d="m28.086 1.403-1.833.024.034 2.75 1.833-.024-.034-2.75Z" fill="#555160"/><path d="M28.417 51.333h-1.834v2.75h1.834v-2.75Z" fill="#3B3944"/><path d="m12.518 9.44 1.47-1.096-1.645-2.204-1.469 1.096 1.644 2.204Z" fill="#555160"/><path d="m42.66 49.852 1.47-1.096-1.644-2.204-1.47 1.096 1.645 2.204Z" fill="#3B3944"/><path d="m7.517 14.98 1.06-1.497-2.245-1.588-1.06 1.496 2.245 1.589Z" fill="#555160"/><path d="m48.675 44.098 1.06-1.496-2.245-1.589-1.06 1.497 2.245 1.588Z" fill="#3B3944"/><path d="m4.472 21.792.544-1.75-2.626-.817-.544 1.75 2.626.817Z" fill="#555160"/><path d="m52.615 36.773.545-1.75-2.626-.818-.545 1.751 2.626.817Z" fill="#3B3944"/><path d="m3.66 27.38-2.75.034.023 1.833 2.75-.035-.023-1.833Z" fill="#555160"/><path d="m54.073 26.746-2.75.034.023 1.833 2.75-.034-.023-1.833Z" fill="#3B3944"/><path d="m2.624 37.396 2.604-.883-.588-1.736-2.605.882.589 1.737ZM6.74 44.623l2.205-1.644-1.097-1.47-2.204 1.645 1.096 1.47ZM42.016 9.07l1.588-2.246-1.497-1.058L40.52 8.01l1.497 1.06ZM35.46 5.51l.818-2.625-1.75-.545-.818 2.626 1.75.544Z" fill="#555160"/><path d="m52.975 20.333-.59-1.734-1.789.606c.14.598.264 1.202.363 1.814l2.016-.686ZM49.36 12.836l-1.096-1.469-.62.466c.312.53.613 1.07.889 1.624l.826-.62ZM11.4 49.168l1.497 1.058.597-.841a26.46 26.46 0 0 1-1.646-.848l-.447.631ZM18.413 52.498l1.742.568.657-2.024a26.582 26.582 0 0 1-1.818-.34l-.58 1.796Z" fill="#3B3944"/><path d="m50.37 21.216.59-.2c-.1-.612-.223-1.216-.364-1.814l-.815.276.59 1.738ZM47.156 14.481l1.377-1.025a26.396 26.396 0 0 0-.889-1.625l-1.585 1.183 1.097 1.467ZM12.99 46.923l-1.142 1.614c.538.299 1.084.586 1.646.848l.99-1.403-1.494-1.059ZM19.263 49.883l-.266.819c.6.133 1.204.248 1.818.34l.192-.592-1.744-.567ZM27.261 8.748c-10.63.133-19.14 8.86-19.006 19.49.133 10.63 8.86 19.14 19.49 19.007 10.63-.134 19.14-8.86 19.007-19.49-.134-10.631-8.86-19.14-19.49-19.007Zm.426 33.914c-8.1.101-14.748-6.382-14.85-14.482-.101-8.1 6.382-14.748 14.482-14.85 8.1-.101 14.748 6.382 14.85 14.482.101 8.1-6.382 14.748-14.482 14.85Z" fill="#555160"/><path d="M40.457 13.784c7.36 7.655 7.12 19.828-.536 27.188-7.309 7.026-18.816 7.171-26.3.33 7.339 7.678 19.512 7.952 27.19.614 7.678-7.34 7.952-19.512.613-27.19-.311-.325-.634-.64-.967-.942Z" fill="#3B3944"/><path d="M35.693 15.85a14.628 14.628 0 0 0-4.058-1.923l-.49 1.217a20.15 20.15 0 0 1 4.548.706ZM23.937 16.171l-.918-2.136a14.71 14.71 0 0 0-7.608 5.687l1.09.912a20.14 20.14 0 0 1 7.436-4.463Z" fill="#9C1928"/><path d="M27.25 7.831c-11.137.14-20.052 9.282-19.912 20.419.14 11.136 9.282 20.051 20.418 19.911 11.137-.14 20.052-9.281 19.912-20.418C47.516 16.61 38.382 7.704 27.25 7.83Zm.483 38.497c-10.124.127-18.435-7.977-18.562-18.101-.127-10.125 7.977-18.435 18.102-18.563 10.125-.127 18.435 7.977 18.562 18.102.115 10.12-7.983 18.423-18.102 18.562Z" fill="#000"/><path d="M27.307 12.414c-8.605.108-15.494 7.172-15.386 15.778.108 8.606 7.172 15.495 15.778 15.386 8.606-.108 15.494-7.172 15.386-15.778-.117-8.602-7.175-15.485-15.778-15.386Zm13.867 14.182-5.746-.392a.917.917 0 0 1-.542-1.6l4.315-3.798a13.634 13.634 0 0 1 1.973 5.79ZM30.395 14.565l-2.147 5.344a.916.916 0 0 1-1.692.02l-2.282-5.288c2.007-.499 4.103-.525 6.121-.076ZM15.626 21.1l4.411 3.69a.916.916 0 0 1-.502 1.616l-5.735.536c.16-2.061.784-4.058 1.83-5.842h-.004Zm1.648 16.058 4.868-3.054a.917.917 0 0 1 1.381.977l-1.26 5.625a13.813 13.813 0 0 1-4.987-3.548h-.002Zm6.735 4.124 1.303-5.799a2.75 2.75 0 0 0-4.145-2.932l-5.034 3.16a13.66 13.66 0 0 1-2.34-6.93l5.913-.552a2.75 2.75 0 0 0 1.505-4.847l-4.558-3.812a13.803 13.803 0 0 1 5.863-4.372l2.353 5.455a2.75 2.75 0 0 0 5.077-.063l2.216-5.513a13.803 13.803 0 0 1 5.97 4.223l-4.455 3.925a2.75 2.75 0 0 0 1.629 4.808l5.925.404a13.66 13.66 0 0 1-2.165 6.986l-5.118-3.033a2.75 2.75 0 0 0-4.07 3.036l1.448 5.764a13.4 13.4 0 0 1-7.314.092h-.003Zm9.049-.712-1.404-5.59a.916.916 0 0 1 1.357-1.013l4.943 2.931a13.805 13.805 0 0 1-4.893 3.672h-.003Z" fill="#000"/><path d="M31.17 27.95a3.667 3.667 0 1 0-7.333.092 3.667 3.667 0 0 0 7.332-.092Zm-3.644 1.88a1.833 1.833 0 1 1-.047-3.666 1.833 1.833 0 0 1 .047 3.665Z" fill="#000"/><path d="M27.849 55.494C12.66 55.684.196 43.53.005 28.342-.185 13.155 11.97.689 27.158.498 42.345.308 54.81 12.464 55 27.651c.173 15.18-11.973 27.635-27.152 27.843ZM27.18 2.332C13.006 2.51 1.66 14.145 1.838 28.319c.179 14.174 11.813 25.52 25.988 25.342C42 53.483 53.346 41.848 53.168 27.674 52.973 13.506 41.348 2.17 27.18 2.332Z" fill="#000"/></g><defs><clipPath id="a"><path fill="#fff" d="M0 0h55v55H0z"/></clipPath></defs></svg>