<svg width="103" height="17" fill="none" xmlns="http://www.w3.org/2000/svg"><path d="m94.63 0 1.88 5.87h6.08L97.67 9.5l1.88 5.88-4.92-3.63-4.92 3.63L91.6 9.5l-4.92-3.63h6.08L94.63 0ZM72.74 0l1.88 5.87h6.08L75.78 9.5l1.88 5.88-4.92-3.63-4.92 3.63L69.7 9.5l-4.92-3.63h6.08L72.74 0ZM50.86 0l1.88 5.87h6.08L53.9 9.5l1.88 5.88-4.92-3.63-4.92 3.63 1.88-5.88-4.92-3.63h6.08L50.86 0ZM30.37 0l1.88 5.87h6.08L33.4 9.5l1.88 5.88-4.92-3.63-4.92 3.63 1.88-5.88-4.92-3.63h6.08L30.37 0ZM8.37 0l1.88 5.87h6.08L11.4 9.5l1.88 5.88-4.92-3.63-4.92 3.63L5.33 9.5.4 5.87h6.08L8.37 0Z" fill="#D12136"/></svg>